# xmcd
#
# Track frame offsets:
#	150
#	15037
#	31237
#	43987
#	57862
#	68437
#	80625
#	96112
#	113137
#	128400
#	145200
#	157987
#	171037
#	190312
#	201712
#	212625
#	226275
#	241050
#	252937
#	265650
#	280125
#	295650
#	309337
#
# Disc length: 4346 seconds
# Revision: 0
# Processed by: cddbd v1.5.2PL0 Copyright (c) Steve Scherf et al.
# Submitted via: dBpowerAMP V12.0
#
DISCID=3510f817
DTITLE=Highwoods String Band - Feed Your Babies Onions
DYEAR=1994
DGENRE=Country
TTITLE0=Dance All Night
TTITLE1=You Ain't Talking to Me
TTITLE2=Money Musk
TTITLE3=More Pretty Girls Than One
TTITLE4=Fire on the Mountain
TTITLE5=Gypsy Girl
TTITLE6=Pig Ankle Rag
TTITLE7=Wild Bill Jones
TTITLE8=Sleeping Lulu
TTITLE9=Meeting in the Air
TTITLE10=Hawks and Eagles
TTITLE11=Who Broke the Lock?
TTITLE12=Way Out There
TTITLE13=Carroll County Blues
TTITLE14=Old Jimmy Sutton
TTITLE15=Devilish Mary
TTITLE16=Way Down the Old Plank Road
TTITLE17=Tater Patch
TTITLE18=My Dixie Darling
TTITLE19=Free Little Bird
TTITLE20=Been All Around This World
TTITLE21=Goodbye Miss Liza Jane
TTITLE22=Lee Highway Blues
EXTD=
EXTT0=
EXTT1=
EXTT2=
EXTT3=
EXTT4=
EXTT5=
EXTT6=
EXTT7=
EXTT8=
EXTT9=
EXTT10=
EXTT11=
EXTT12=
EXTT13=
EXTT14=
EXTT15=
EXTT16=
EXTT17=
EXTT18=
EXTT19=
EXTT20=
EXTT21=
EXTT22=
PLAYORDER=
